<svg xmlns="http://www.w3.org/2000/svg" x="0px" y="0px" viewBox="0 0 32 32" width="32" height="32">
  <path d="M8.2054 18.9207l-.9746 3.6385-3.5623.0754C2.6039 20.66 2 18.4008 2 16c0-2.3215.5646-4.5108 1.5654-6.4385h.0007l3.1715.5815 1.3893 3.1524A8.322 8.322 0 0 0 7.6776 16c.0001 1.0277.1863 2.0123.5278 2.9207z" fill="#fbbb00"/>
  <path d="M29.7554 13.3846C29.9162 14.2316 30 15.1061 30 16c0 1.0023-.1054 1.98-.3061 2.9231-.6816 3.2092-2.4623 6.0115-4.9292 7.9946l-.0008-.0008-3.9946-.2038-.5654-3.5292c1.637-.96 2.9162-2.4623 3.59-4.2608h-7.4861v-5.5385h7.5954z" fill="#518ef8"/>
  <path d="M24.7638 26.917l.0008.0007C22.3654 28.8461 19.3176 30 16 30c-5.3315 0-9.967-2.98-12.3315-7.3654l4.5369-3.7138c1.1823 3.1554 4.2261 5.4015 7.7946 5.4015 1.5338 0 2.9708-.4146 4.2038-1.1384z" fill="#28b446"/>
  <path d="M24.9362 5.223l-4.5354 3.7131C19.1246 8.1385 17.616 7.6777 16 7.6777c-3.6492 0-6.75 2.3492-7.873 5.6177L3.566 9.5615h-.0007C5.8954 5.0692 10.5892 2 16 2c3.397 0 6.5115 1.21 8.9362 3.223z" fill="#f14336"/>
</svg>
