<svg xmlns="http://www.w3.org/2000/svg" width="640" height="480" version="1">
  <g fill-rule="evenodd">
    <path fill="#fff" d="M0 0h640v480H0z"/>
    <path fill="#0b7226" d="M0 0h215v480H0z"/>
    <path fill="#bc0000" d="M427 0h213v480H427z"/>
  </g>
  <path fill="#9c4314" fill-rule="evenodd" d="M213 259l3-5c2 1 5 0 3-3l1-3c1-2-1-3-2-2l-2 3c-3-1-3 2-2 3l-2 3 1 4z"/>
  <path fill="#9c4314" fill-rule="evenodd" d="M213 257l-5-3c1-1 0-4-3-2l-3-2c-2-1-3 2-2 3l3 1c-1 4 2 4 3 2l5 4c2-1 1-2 2-3zM234 294l1-6c2 0 4-2 0-4v-3c0-3-2-2-2 0v3c-4 0-2 3-1 3v4l2 3zM233 293h-6c1-2-2-4-3-1h-3c-3 0-2 2-1 3h4c0 3 3 2 3 0l6 1v-3z"/>
  <path fill="#42b2f3" fill-rule="evenodd" stroke="#000" stroke-width=".9375" d="M304 316l4 3h30l1-3 5-3 17-4c0-3-4-3-6-4v-2l13-6v-1c-9 1-18 3-28 3l-33 14-3 3z"/>
  <path fill="none" stroke="#000" stroke-width=".9375" d="M210 254v-2"/>
  <path fill="#008d00" fill-rule="evenodd" stroke="#286726" stroke-width="1.875" d="M211 255c-2-6-5-11-11-13-2 0-2-4 0-4l1 1c1 0 3-1 2-3l-2-4c-1 0 0-3 2-2l3 3 1-3v-4c0-3 2-4 4-2v1h1l2-2c2 0 2-1 3 2l-3 3c-1 1-2 2 0 2h3v3l-3 3-1 1h3c2 0 2 4-1 4-1 0-3 0-3 2l-1 4 1 7c0 2-1 1-1 1zM230 291s-6-7-13-6c-1 0-3-3-1-3h2c1-1-1-3-2-3l-4 1c-2-1-4-4-2-5h6l-1-2-9-3c-1-2 0-3 3-2 1 1 2 0 1-1l-1-2c0-1 0-2 1-1 1-1 2 3 5 1 1 1 1-3 4-2l1 4c0 2 1 2 2 1-1-4 3-4 4-3v6l1 4 1-1c1-1 4 2 1 4-3 1 2 12 2 13h-1z"/>
  <path fill="#9c4314" fill-rule="evenodd" d="M267 321l-1-5c2 0 3-3 0-4v-3c-1-3-3-2-3 0v3c-3 1-1 4 0 3l1 4 3 2zM266 321h-5c0-2-3-3-4 0l-3 1c-3 0-2 3 0 2h3c1 3 4 1 3 0h6v-3z"/>
  <path fill="#33b1e9" fill-rule="evenodd" stroke="#000" stroke-width=".9375" d="M264 284c17 9 21 8 20 4l4-1c-1 6 6 10 10 9 4 0 4 5 4 5 0 5-2 7-1 13l-1-1-17-2c16-11-12-11-15-12-2 0 0-2 1-2 8-2-9-10-8-11v-1l3-1z"/>
  <path fill="#983d25" fill-rule="evenodd" stroke="#000" stroke-width="1.875" d="M305 292c-2 0-5 2-5 5v15c0 3 3 5 5 5h35c3 0 5-2 5-5v-15c0-3-2-5-5-5h-35z"/>
  <path fill="#268728" fill-rule="evenodd" stroke="#000003" stroke-linecap="round" stroke-linejoin="round" stroke-width=".9375" d="M267 151l-8 6c-3 2-7 4-4 11-2 10 6 11 13 9l3-6h-8c-2 0-2-2-1-3l8-4v-1c-2 2-4 2-7 3-2 1-2-2-1-3l5-8v-4z"/>
  <path fill="#fff" fill-rule="evenodd" stroke="#000" stroke-width="1.1874" d="M289 284a4 4 0 1 1-9 0 4 4 0 0 1 9 0z"/>
  <path fill="#fff" fill-rule="evenodd" stroke="#000" stroke-width="1.11954" d="M269 300a4 4 0 1 1-8 0 4 4 0 0 1 8 0zM365 308a4 4 0 1 1-7 0 4 4 0 0 1 7 0z"/>
  <path fill="#ba4600" fill-rule="evenodd" stroke="#000" stroke-linejoin="round" stroke-width=".9375" d="M267 156v6l-1-5 1-1z"/>
  <path fill="#973100" fill-rule="evenodd" stroke="#000" stroke-width="1.49272" d="M305 313a4 4 0 1 1-8 0 4 4 0 0 1 8 0zM346 313a4 4 0 1 1-8 0 4 4 0 0 1 8 0zM346 294a4 4 0 1 1-8 0 4 4 0 0 1 8 0zM305 294a4 4 0 1 1-7 0 4 4 0 0 1 7 0z"/>
  <path fill="#008d00" fill-rule="evenodd" stroke="#286726" stroke-width="1.875" d="M267 324c0-1-2-6-12-6h-5v-2h-6l-3-1c-3 0-5-2-3-4h6v-3l-9-1c-2-2-1-4 2-3 2 1 2 0 1-1 0-2-3-2-3-3-1-4 1-4 3-4 0 0-3-3 1-4 0 0 2 0 3 3 1 1 0-2 3-3 2-1-1 9 2 9 2 1 2-5 3-4 4-1 2 12 4 11 3 3 3-2 4-1 1 0 2 0 1 3l1 3c2 6 6 6 7 9v2z"/>
  <path fill="#009400" fill-rule="evenodd" stroke="#000" stroke-width=".9375" d="M314 332c-4 4-9 7-11 11l4-1c2-4 8-6 11-9l-4-1zM327 333c4 3 9 6 11 10h-4c-2-4-8-7-11-10h4z"/>
  <path fill="#fff" fill-rule="evenodd" stroke="#000" stroke-width=".9375" d="M324 333c5 3 7 6 10 10l-4 1-10-10 4-1z"/>
  <path fill="#ffba00" fill-rule="evenodd" stroke="#000" stroke-width=".9375" d="M275 166c-2 1-3 2-3 4-8 5-2 16 5 14-5-8 0-13 6-10l3 4c1-3 5-5 5-5s4 1 4-1l4-8-11-2h-8l-4 1-1 3z"/>
  <path fill="#d40000" fill-rule="evenodd" stroke="#000" stroke-width=".9375" d="M319 334c6 3 8 6 11 10l-3 3c-2-5-6-10-10-14l2 1z"/>
  <path fill="#fff" fill-rule="evenodd" stroke="#000" stroke-width=".9375" d="M317 333c-5 3-6 5-10 9l5 2c3-5 6-7 10-10l-5-1z"/>
  <path fill="#d40000" fill-rule="evenodd" stroke="#000" stroke-width=".9375" d="M322 333c-5 3-8 6-11 10l3 3c2-5 8-9 12-13h-4z"/>
  <path fill="#973000" fill-rule="evenodd" stroke="#000" stroke-width="2" d="M204 472c0 5-8 10-16 10-9 0-17-5-17-10s8-9 17-9c8 0 16 4 16 9z" transform="matrix(.41114 .13432 -.1235 .44716 238 47)"/>
  <path fill="#008d2b" fill-rule="evenodd" stroke="#005e00" stroke-width=".9375" d="M313 327l-12 9h3l10-7 3-1-4-1z"/>
  <path fill="#973000" fill-rule="evenodd" stroke="#000" stroke-width="3" d="M204 472c0 5-8 10-16 10-9 0-17-5-17-10s8-9 17-9c8 0 16 4 16 9z" transform="matrix(.3491 -.13705 .16417 .36723 138 164)"/>
  <path fill="#008d00" fill-rule="evenodd" stroke="#000" stroke-width=".9375" d="M351 286c0-11 9-2 13-6 8-10 9-10 16-9 20 7-1 25-21 17l-8-2z"/>
  <g fill="#6d390b" fill-rule="evenodd">
    <path d="M425 252c0 1-2 2-3 1l-2-2c0-1 1-2 3-2s2 2 2 3z"/>
    <path d="M424 251l5 5-1 1-5-4z"/>
  </g>
  <path fill="#6d390b" fill-rule="evenodd" d="M395 267l1 1 4-3-1-1-4 3z"/>
  <path fill="none" stroke="#000" stroke-linecap="round" stroke-width="1.875" d="M305 292c7 2 11 24 17 26M311 292c6 1 11 23 17 25M317 291c6 2 10 24 16 26"/>
  <path fill="#973000" fill-rule="evenodd" stroke="#000" stroke-width="2" d="M204 472c0 5-8 10-16 10-9 0-17-5-17-10s8-9 17-9c8 0 16 4 16 9z" transform="matrix(.3491 -.13705 .16417 .36723 226 149)"/>
  <path fill="#dc0000" fill-rule="evenodd" stroke="#000" stroke-width=".9375" d="M398 272c0 1 0 2-2 3-2 0-4 0-4-2-1-1 0-2 3-3 2 0 3 0 3 2z"/>
  <path fill="#008d00" fill-rule="evenodd" stroke="#286026" stroke-width="1.875" d="M307 328c-3 1-10 2-13 8 0 1-5 2-4 0l1-2h-3l-2 1c-2 3-5 3-5 0l3-3c0-1-3-2-4-1l-5 4c-2 1-4-1-2-2s0-3-1-3h-9c-1 0-3-3-1-3 2-1 5 0 6-3 0-6 10 3 8 0-3-5 3-6 4-2l6 3c2 0-4-5 0-6l4 2c1 1 2 5 5 5 1-1 0 0-1-2 0-2 3-2 5 1 1 3 8 1 14 1 2 0 5 2-6 2z"/>
  <path fill="#dc0000" fill-rule="evenodd" stroke="#000" stroke-width=".9375" d="M391 271c1 2 1 5-2 7s-6 1-7 0c-1-2 0-5 3-7s5-1 6 0zM393 264c1 1 2 3 1 4-1 2-3 3-4 2-1 0-2-2 0-4 1-2 2-2 3-2z"/>
  <path fill="#dc0000" fill-rule="evenodd" stroke="#000" stroke-width=".9375" d="M397 268c0 1 0 2-2 3-1 2-4 1-4 0-1-1 0-3 2-4 1-1 3 0 4 1z"/>
  <path fill="#d90000" fill-rule="evenodd" stroke="#000" stroke-width=".9375" d="M403 262c1 0 1 2-1 2h-3l1-3c2-1 3 0 3 1z"/>
  <path fill="#fff" fill-rule="evenodd" stroke="#000" stroke-width=".9375" d="M318 323c-3 1-4 1-5 3l1 4c0 2 2 3 4 3h4c2 0 5-1 5-3l1-4c0-2-2-2-5-3h-5z"/>
  <path fill="#008f00" fill-rule="evenodd" stroke="#286326" stroke-width="1.875" d="M412 290c-1-10-3-24 9-28 1-1 2 0 1 1l-10 27z"/>
  <path fill="#008c00" fill-rule="evenodd" stroke="#286326" stroke-width="1.875" d="M427 270c2-4 8-5 9-5l-9 16c-3 6-12 9-17 12l17-23z"/>
  <path fill="#009400" fill-rule="evenodd" stroke="#000" stroke-width=".9375" d="M318 323l-2 1-2 1-1 3 1 2 1 2 3 1v-10z"/>
  <path fill="#008d00" fill-rule="evenodd" stroke="#286326" stroke-width="1.875" d="M410 293c1 0 7-31 18-34 2 2 1 7 0 9-3 12-11 20-18 25z"/>
  <g fill="#6d390b" fill-rule="evenodd">
    <path d="M434 256c0 1 0 2 2 2l3-1c1-1 0-2-2-3s-2 0-3 2z"/>
    <path d="M435 255l-6 1v2l6-1z"/>
  </g>
  <g fill="#6d390b" fill-rule="evenodd">
    <path d="M408 287h-4c-1-1-2-2-1-3s2-2 4-1 1 3 1 4z"/>
    <path d="M407 286l4 6-2 1-3-6z"/>
  </g>
  <g fill="#6d390b" fill-rule="evenodd">
    <path d="M415 295l2-3c1-1 3 0 4 1s-1 3-2 3l-4-1z"/>
    <path d="M416 295h-7v-2h7z"/>
  </g>
  <path fill="#008c00" fill-rule="evenodd" stroke="#286326" stroke-width=".9375" d="M405 302c7-3 3 2 3 5-2 6-4 6-7 8-3 3-14 1-19 2l23-15zM395 301c3-3 4-7 4-9l-11 10c-4 3-6 11-8 16l15-17z"/>
  <path fill="#008c00" fill-rule="evenodd" stroke="#286326" stroke-width="1.875" d="M361 329c4-2 12 2 13 3-5 0-14 4-17 4-6 2-22-7-28-9 10 0 22 3 32 2z"/>
  <path fill="#00602b" fill-rule="evenodd" stroke="#004500" stroke-width=".9375" d="M328 328l12 9h-3l-10-7-2-1 3-1z"/>
  <path fill="#008c00" fill-rule="evenodd" stroke="#286326" stroke-width="1.875" d="M379 317c1 0 19-24 30-23 0 3-2 7-4 9-8 9-18 12-26 14z"/>
  <g fill="#6d390b" fill-rule="evenodd">
    <path d="M377 314c-1 1-2 0-3-1s0-3 1-4 2 0 3 1 0 3-1 4z"/>
    <path d="M377 313v7h-2v-7z"/>
  </g>
  <g fill="#6d390b" fill-rule="evenodd">
    <path d="M382 324c0-2 1-2 3-2s2 1 2 3-1 2-3 1l-2-2z"/>
    <path d="M383 324l-6-3 1-2 6 4z"/>
  </g>
  <path fill="#dc0000" fill-rule="evenodd" stroke="#000" stroke-width=".9375" d="M232 237l3-1c1 1 2 3 1 4h-3c-2-1-2-2-1-3z"/>
  <path fill="#008c00" fill-rule="evenodd" stroke="#286326" stroke-width=".9375" d="M358 325c7-1 7-5 10-8-8-1-14 2-17 3-6 4-7 8-12 10 8-1 12-2 19-5z"/>
  <path fill="#008c00" fill-rule="evenodd" stroke="#286326" stroke-width="1.875" d="M334 328c21 1 18-7 41-7-1 3-5 6-7 7-10 6-27 8-34 0z"/>
  <path fill="#d40000" fill-rule="evenodd" stroke="#000" stroke-width=".9375" d="M323 323v10l3-1 1-2 1-2v-3l-3-1-2-1z"/>
  <path fill="#6d390b" fill-rule="evenodd" d="M237 232l-4-4 2-1 3 3z"/>
  <path fill="#dc0000" fill-rule="evenodd" stroke="#000" stroke-width=".9375" d="M232 234c1-1 2-2 4-1 1 2 2 3 1 4 0 1-2 2-4 1l-1-4zM241 230c1 0 2 1 2 3s-1 3-2 3l-2-3c0-2 1-3 2-3z"/>
  <path fill="#dc0000" fill-rule="evenodd" stroke="#000" stroke-width=".9375" d="M237 231c1-1 2 0 3 2l-2 4-3-3c0-2 1-3 2-3z"/>
  <path fill="#008d00" fill-rule="evenodd" stroke="#000" stroke-linecap="round" stroke-linejoin="round" stroke-width=".9375" d="M264 261c-4-8-13-22-22-15-10 8 5 22 17 21l5-6z"/>
  <path fill="#dc0000" fill-rule="evenodd" stroke="#000" stroke-width=".9375" d="M238 237c1-1 4-1 6 2s2 6 0 8c-1 1-5 0-7-3s-1-6 1-7zM231 223c1-1 2-1 3 1v3c0 1-2 1-3-1v-3z"/>
  <path fill="#008d00" fill-rule="evenodd" stroke="#000" stroke-width=".9375" d="M291 271c-4-7-15-16-26-11-14 10 5 24 24 17 2-2 1-4 2-6z"/>
  <path fill="#008d00" fill-rule="evenodd" stroke="#000" stroke-width=".9375" d="M329 275c-4-7-26-15-35-8-12 13 5 23 29 16l6-8z"/>
  <path fill="none" stroke="#000" stroke-linecap="round" stroke-linejoin="round" stroke-width=".9375" d="M244 248l2 3v-4M248 254l3 2M257 252v3h2M257 262l-3-2M251 262l-3-1"/>
  <path fill="none" stroke="#000" stroke-width=".9375" d="M245 256l-3-1"/>
  <path fill="none" stroke="#000" stroke-linecap="round" stroke-linejoin="round" stroke-width=".9375" d="M239 254h-3M251 245v-4M247 264h-5M255 267l-4 1M260 254l3-1M252 250l-1-3"/>
  <path fill="none" stroke="#000" stroke-width=".9375" d="M318 323c-3 1-4 1-5 3l1 4c0 3 2 3 4 3h4c2 0 5-1 5-3l1-4c-1-2-2-3-5-3h-5zM318 323v10M323 323v10"/>
  <path fill="#008c00" fill-rule="evenodd" stroke="#286326" stroke-width=".9375" d="M429 240c2-5-4-7-5-10-2 5-1 10-1 13 1 4 5 7 5 10l1-13zM436 235c0-3 4-5 6-5v10c0 3-7 9-10 12l4-17z"/>
  <path fill="#008c00" fill-rule="evenodd" stroke="#286326" stroke-width=".9375" d="M429 257c0-1-3-26 4-32 2 2 3 5 3 7 0 9 1 13-7 25z"/>
  <path fill="#dc0000" fill-rule="evenodd" stroke="#000" stroke-width=".9375" d="M281 256c2 1 4 3 3 7-1 3-3 6-6 5s-4-4-3-8 4-5 6-4zM285 252v3l-3 1v-3l3-1zM279 251c1 0 2 0 2 2l-1 2c-1 1-2 0-2-2l1-2z"/>
  <path fill="#dc0000" fill-rule="evenodd" stroke="#000" stroke-width=".9375" d="M281 254c1 0 2 1 1 2 0 2-1 2-2 2l-1-3 2-1zM283 249v2c0 1-1 2-2 1v-2l2-1zM286 255v3h-3v-2l3-1zM277 253l2 2-2 2-1-2 1-2z"/>
  <path fill="none" stroke="#000" stroke-width=".9375" d="M266 319z"/>
  <path fill="#fff" fill-rule="evenodd" stroke="#000" stroke-width=".9375" d="M361 270c4 2 2 7-1 9 0-4-2-5-5-5 2-1 3-4 6-4z"/>
  <path fill="#008d00" fill-rule="evenodd" stroke="#000" stroke-width=".9375" d="M321 291c2-23 19-25 30-22 16 12 0 22-25 23l-5-1z"/>
  <path fill="#fff" fill-rule="evenodd" stroke="#000" stroke-width=".9375" d="M326 265c-5 0-7 5-4 8 2-3 4-3 8-2-1-1-1-5-4-6zM329 272c-4 2-3 7 0 9 0-4 2-5 5-5-1-1-3-4-5-4z"/>
  <path fill="#f6aa00" fill-rule="evenodd" stroke="#000" stroke-linecap="round" stroke-linejoin="round" stroke-width=".9375" d="M361 270c0-1-1-3-3-3s-4 1-6-1l-6-6-5-2c-1 2-2 5-5 6l-4 1h-6l1 7h2c3 0 3 3 4 5 3 1 4-1 5-4l5-2h7l3 4h5c0-2-1-5 3-5z"/>
  <path fill="none" stroke="#000" stroke-width=".9375" d="M340 260v6c1 2 5 1 5 0v-6"/>
  <path fill="none" stroke="#000" stroke-linecap="round" stroke-width=".9375" d="M341 272l2-3M345 271v-2M349 271v-2M339 269l-2-2M335 273l-2-3M332 266l1-1M340 266c-5 4-10 2-11 6M352 268v-1"/>
  <path fill="none" stroke="#000" stroke-linecap="round" stroke-linejoin="round" stroke-width=".9375" d="M272 270h3l-3-2M294 274h4l-3-4M304 275c-1-1 4 0 3-1l-2-3M299 261l2 3v-4M369 281v4l3-3M339 280v4l4-2M269 261l2 2M264 265l3 2M281 271h4M276 275h3M301 267l2 2M311 268l2 3M292 264l2 2M266 256l2 2M294 286l2-3M305 288l2-3M261 275l3-1M267 272h3l-4-2M272 279h3M313 276h3M307 281h3M311 263l3 3-1-4M345 274l-3 2M353 276l-2 3M349 283l-2 3M378 284l-2 2M363 282l-2 3M378 267l-2 3M390 284h-4M361 292v-4M372 276l1-3M377 279l2-3M382 289h-4l3 2M330 288l-1 4 4-3M299 281l2-2h-2"/>
  <path fill="#9c4314" fill-rule="evenodd" stroke="#000" stroke-linejoin="round" stroke-width=".9375" d="M403 258c2 1 5-14 4-18 0 0 0-10 2-17 1-2 1-19-1-24 2 0 3 0 4-2-7 2-9-15-16-25-6-10-14-16-23-22l3-4c-10 5-26-14-50-13-5 1-8 1-9 4-5 1-9 2-9 8 0 1 1 4 4 4 4 1 7 0 10 5v6l-5-5 1-3h-5s-7-3-12-2l-2-5c-1 3-3 3-3 6l-2-6c-2 2-1 5-2 8-1 0-2 1-3-1v-5c-2 2-3 3-4 8l-1-5c0 5-5 9-10 13-1 2 1 2 1 3l2 1h4l2 2c5 1 11-5 16 4-2 2-4 7-3 7 0 0-2 2 1 1l-6 8c0 1 2 0 1 2h1c-9 9 0 19-1 25 1 2 1 0 3-1 2 7 6 11 9 16h-6c0 3 3 5 4 7l-3 2c-3 1-5 2-7 5-1 3 6 3 10 4v3c5 1 11-1 11-1l2-1c0 2 2 2 3 2l2-8 6 9h1l6 8h2c1 0 2 0 3-2v1c2 1 3-1 3-2h3l1 2 2-4 2 2 1-3 8 7 5 1c2 1 8 2 9 0 4 2 10-1 9-3 5 2 11 1 11 0 1 0 3-2 1-3-14-10-34-26-42-29 0-3-2-13-5-16 0-2 1-4 2-3 6 5 8 4 10 5l8 9 2 1c-2-5-4-10-10-16l11 8c3 4 3 7 5 11 2 1 3 5 3 2 0-5-4-14-4-14 6 4 6 12 7 16l3 5c1-1-1-14-1-14l-1-5c4 3 6 12 8 24v5c1 1 2 4 2 2l-1-23v-6l5 24v6l3 2 1-14-2-17v-4c0-2 2-2 3 0v11l2 14 1 17z"/>
  <path fill="none" stroke="#000" stroke-linecap="round" stroke-linejoin="round" stroke-width=".9375" d="M326 284l-1-3-1 3M370 271l-1 3M348 289h-3l2 2"/>
  <path fill="none" stroke="#000" stroke-width=".9375" d="M312 234v1-1 1-1 9l1 2v1l1 2v1l1 1"/>
  <path fill="none" stroke="#000" stroke-width=".9375" d="M302 250v-1l1-2 2-1 2-2h1l1-1h4"/>
  <path fill="none" stroke="#000" stroke-linecap="round" stroke-width=".9375" d="M395 206c2 1 4 4 5 10M384 207c3 3 4 6 6 12"/>
  <path fill="#00c600" fill-rule="evenodd" stroke="#000" stroke-linecap="round" stroke-width=".9375" d="M377 211l4 6M365 204l8 11"/>
  <path fill="none" stroke="#000" stroke-width=".9375" d="M317 137c0 11 16 9 18 19 3 12 2 20-3 23-3 3-1 7 0 9 5 12 11 13 14 23"/>
  <path fill="none" stroke="#000" stroke-linecap="round" stroke-width=".9375" d="M310 145l1-1 5-1 4 1"/>
  <path fill="none" stroke="#000" stroke-width=".9375" d="M332 250l6 9M351 236l31 23M350 242l22 20M307 217c3 6 11 14 16 15v-8"/>
  <path fill="none" stroke="#000" stroke-width=".9375" d="M317 214c3 6 5 12 13 16 1-6-1-14-5-22"/>
  <path fill="none" stroke="#000" stroke-width=".9375" d="M318 206l7 3c1-6 2-12-3-21M307 209c4 5 8 5 10 5v-21M297 213l18 19 1-4M366 156c4 5 21 21 24 29 5 13 16 15 19 14M337 225c2 6 4 17 8 19 1-1 2-2 1-5"/>
  <path fill="none" stroke="#000" stroke-width=".9375" d="M315 190c1 2 2 4 4 4 2-2 6-12 4-20"/>
  <path fill="none" stroke="#000" stroke-width=".9375" d="M305 190c1 4 2 7 5 7 5-4 6-12 5-20M304 211l-3-5M350 249l14 13M343 244l4 12M323 232c3 6 10 15 15 16v-4M316 231c3 6 11 16 16 19l1-4M338 248l6 11M330 222l7 3c1-7-2-17-6-25"/>
  <path fill="none" stroke="#000" stroke-width=".9375" d="M298 188c-1 3 0 6 2 6 8-3 4-7 10-18M309 167c3 6 4 10 8 11 1 0 3-10-4-19"/>
  <path fill="none" stroke="#000" stroke-width=".9375" d="M318 172c2 2 4 2 6 2 2-4-2-14-7-19M362 164l28 29c1 0 4 2 1-5M361 175c3 6 10 15 17 21l4-1 1-9"/>
  <path fill="none" stroke="#000" stroke-width=".9375" d="M356 182l17 17h4v-5"/>
  <path fill="none" stroke="#000" stroke-width=".9375" d="M350 191c4 4 8 8 12 9l3-1v-8"/>
  <path fill="none" stroke="#000" stroke-width=".9375" d="M344 197c4 5 4 7 8 7h4l1-7"/>
  <path fill="none" stroke="#000" stroke-linecap="round" stroke-width=".9375" d="M342 166c5 1 5-3 5-6-1-3-3-5-6-4M340 181c2 1 4 0 5-2s1-6-2-5"/>
  <path fill="none" stroke="#000" stroke-linecap="round" stroke-width=".9375" d="M343 174c4 0 4-2 4-4 0-3-2-5-5-4"/>
  <path fill="none" stroke="#000" stroke-width=".9375" d="M347 163c5-3 22 11 9 15M345 173c6-3 19 8 6 12M343 181c7 0 14 10 2 12"/>
  <path fill="none" stroke="#000" stroke-linecap="round" stroke-width=".9375" d="M336 186c2 1 3 2 5 0 1-1 2-4-1-5"/>
  <path fill="none" stroke="#000" stroke-width=".9375" d="M283 174c2-3 7-5 9-1M340 187c3 1 9 11-1 12"/>
  <path fill="none" stroke="#000" stroke-linecap="round" stroke-width=".9375" d="M335 140c4 1 6 8 10 8 6 1-1-7-2-8"/>
  <path fill="none" stroke="#000" stroke-width=".9375" d="M272 170c2 0 4-1 5-3M291 190c1 2 4 1 6-1 3-1 1-8 8-13M295 216l16 17 1-4M311 232l9 13M330 229c2 7 8 16 12 18l1-6M328 247l-1 6M342 219c1 6 3 21 7 23l2-15M337 218h5c0-6-3-14-7-22"/>
  <path fill="#00c600" fill-rule="evenodd" stroke="#000" stroke-linecap="round" stroke-width=".9375" d="M348 202v7"/>
  <path fill="none" stroke="#000" stroke-width=".9375" d="M325 200h6c2-8-3-8-8-14"/>
  <path fill="none" stroke="#000" stroke-linecap="round" stroke-width=".9375" d="M350 142c4 0 2 7 8 9 4 1 2-5 0-6"/>
  <path fill="none" stroke="#000" stroke-width=".9375" d="M344 156c3-2 14 1 18 4 1 1 2 5-3 9M285 161c9-8 13-7 24-1l4-1-1-3c-5-3-8-4-12-4M298 193c-2 3-3 10 0 17v2l-3 3M350 239c0-11-2-20-6-27M331 197h4c1-2-1-4-1-5l2-1v-5"/>
  <path fill="#fff" fill-rule="evenodd" stroke="#000" stroke-width=".9375" d="M278 166c0-2 3-5 5-6h2v4l-4 3-3-1z"/>
  <path fill="none" stroke="#000" stroke-width=".9375" d="M299 212l5 6h3l1-9"/>
  <path fill="none" stroke="#000" stroke-linecap="round" stroke-linejoin="round" stroke-width=".9375" d="M307 195v10"/>
  <path fill="none" stroke="#000" stroke-width=".9375" d="M300 211l1-5M302 193c-1 3-2 8-1 11M344 212h-3"/>
  <path fill="#9f3000" fill-rule="evenodd" stroke="#000" stroke-width=".9375" d="M240 201c1 2-1 1-1 1-1 1-4-1-5-5 1-2 5-4 6-4 0 0 3 1 3 3l-3 5z"/>
  <path fill="none" stroke="#000" stroke-width=".9375" d="M344 212v-6M349 242l1 14"/>
  <path fill="#238700" fill-rule="evenodd" stroke="#000" stroke-width=".9375" d="M240 202c3 2 8 1 8 7 1 4-5 11 0 17l6 6c3 2 3 7 5 10 3 5 7 6 11 5l11-5-5-8-7 6c-1-1-5 0-6-5 0-6-3-9-8-12-3-2-4-5-2-9 1-4 2-10-2-15-3-1-5-3-8-3-4 1-4 1-3 6z"/>
  <path fill="none" stroke="#000" stroke-width=".9375" d="M297 148c-2 3-2 5-1 7M289 162h4l2-1 1-1 1-1h2l2 1 2 1h4l1 1v6l-1 1h-4l-2-1-1-1h-2l-2-1h-1-3"/>
  <path fill="none" stroke="#000" stroke-width=".9375" d="M292 163h1c-1 0-1 0 0 0l3 1h4M301 161h-1v2l2 1v1l-1 2v1l-1 2v1M347 146s3 5 6 2v-2-1"/>
  <path fill="#fff" fill-rule="evenodd" stroke="#000" stroke-width=".9375" d="M273 245c2 2 4 1 5-1-2 0-3-1-3-3l-2 4z"/>
  <path fill="none" stroke="#000" stroke-width=".9375" d="M360 151l6 2c1 0 6-1 7-3M365 153l1 3-1 2-1 2h-2M344 148l3 7"/>
  <path fill="#fff" fill-rule="evenodd" stroke="#000" stroke-width=".9375" d="M275 244c1 2 4 1 5-1-2 0-3-1-4-3 0 1-2 2-1 4z"/>
  <path fill="#fff" fill-rule="evenodd" stroke="#000" stroke-width=".9375" d="M278 242c1 2 4 1 4 0l-3-3c0 1-2 2-1 3z"/>
  <path fill="none" stroke="#000" stroke-width=".9375" d="M328 145h1c3-1 12 1 14 3M330 191v0l-1-3M312 234v-1 9l1 2v2l1 2v1l1 1M304 226v7l1 2 1 3 1 2h3l1-1h1M302 250v-1l1-2c1-1 3-3 8-4h1M302 238l5 2M310 243z"/>
  <path fill="#ffbc00" fill-rule="evenodd" stroke="#000" stroke-width=".9375" d="M309 243l-14-4-5 3 13 5 5-4h1z"/>
  <path fill="#f7b200" fill-rule="evenodd" stroke="#000" stroke-width=".9375" d="M296 239c1-2 1-5-2-7-7-4-17-4-19 1-3 0-4 1-4 3-6 2 0 8 1 9l3-1 3-2c1 1 2 1 2-1 4 4 9 6 10 2l6-4z"/>
  <path fill="none" stroke="#000" stroke-width=".9375" d="M271 236c0 3 1 5 4 8M275 233c-1 2 0 7 3 9M279 230c-3 2-2 9 1 11"/>
  <path fill="#288800" fill-rule="evenodd" stroke="#000100" stroke-linejoin="round" stroke-width=".9375" d="M285 177c6 8-2 16-9 21-8 7-13 19 2 20 5 0 11 0 14 4s3 11-5 16l-3-3-2-1c0-2 4-6 0-7-5 1-23 1-23-17 0-4 2-8 6-12 3-5 12-10 13-13 1-2-1-6-3-6-2-5 5-10 10-2z"/>
  <path fill="none" stroke="#000" stroke-width=".9375" d="M272 191l1 10M267 195l11 1M275 188l9 2M265 197l8 4M260 206l6 7M266 197l1 15M261 203l10 1M251 229l4-6M254 231l8-2M258 240l5-5M258 240l9-1M264 247l6-4M247 226l6-5M246 221l6-3M247 216l5-1M248 212h5M249 209l5-2M248 207l5-4M247 205l5-5M245 204l4-6M259 169v9M268 171l-5 7M262 169c-3 0-5 1-7 3"/>
  <path fill="#9d4600" fill-rule="evenodd" stroke="#000" stroke-linecap="round" stroke-linejoin="round" stroke-width=".9375" d="M275 176c4 1 9 3 9 15 3-3 5-9 0-15-3-3-7-4-9 0z"/>
  <path fill="none" stroke="#000" stroke-width=".9375" d="M277 180c0-3 3-6 5-6M278 182c1-3 4-6 6-6M278 186c1 0 8-3 9-5M278 184c2-2 6-5 8-5M284 186l3-2M275 176c4 1 9 4 9 15M261 219l6-7M262 220h5M259 213l7 4"/>
  <path fill="#9d4600" fill-rule="evenodd" stroke="#000" stroke-width=".9375" d="M268 213l-3-1c1 9 1 10 3 13 4 3 12 2 15 1 0 1 2 3 1 4l-2 4 2 1 3 4s9-6 7-12c-1-6-5-7-5-7-5-3-12-1-15-2s-5-4-6-5z"/>
  <path fill="none" stroke="#000" stroke-width=".9375" d="M283 229c5-2 10-2 11-2M265 217l5-2M274 227c1-5 3-8 4-9M277 227c0-5 3-8 4-9M280 227c0-5 3-8 4-9M282 226c1-4 3-7 5-8M284 228c0-5 4-8 5-9M284 228c2-4 7-5 8-6M271 226c1-5 3-7 4-8M268 225c1-5 4-7 5-8M283 235c2-2 3 4 3 5l2 1M267 222c0-3 2-5 3-6"/>
  <path fill="#fff" fill-rule="evenodd" stroke="#000" stroke-width=".9375" d="M278 230c-2 5 1 9 4 7 0-3-1-5 2-8l-6 1z"/>
  <path fill="none" stroke="#000" stroke-width=".9375" d="M268 198l1 6M269 204l-2 8M283 229c5-1 10 0 11 1M283 230c5 0 9 2 10 3M283 231c5 1 7 4 8 5M282 232c5 2 6 4 6 6"/>
  <path fill="#296526" fill-rule="evenodd" d="M211 255l2-1 3 11-3 1zM230 292l5 6 1-2-4-6-2 2zM380 316l-6 4 1 2 6-4-1-2zM412 289l-6 5 2 2 6-5-2-2zM429 253l-2 5 1 1 2-4-1-2z"/>
  <path fill="none" stroke="#000" stroke-width=".9375" d="M268 225c-2-4-3-8-3-13l3 1M259 169c-2-5 0-8 3-11"/>
  <path fill-rule="evenodd" d="M263 157l-1 2h-2v-2h3z"/>
  <path fill="none" stroke="#000" stroke-width=".9375" d="M248 198l-8-1M245 204l-5-7"/>
</svg>
