<?xml version="1.0" encoding="UTF-8" standalone="no"?>
<!-- Generated by IcoMoon.io -->

<svg
   xmlns:dc="http://purl.org/dc/elements/1.1/"
   xmlns:cc="http://creativecommons.org/ns#"
   xmlns:rdf="http://www.w3.org/1999/02/22-rdf-syntax-ns#"
   xmlns:svg="http://www.w3.org/2000/svg"
   xmlns="http://www.w3.org/2000/svg"
   xmlns:sodipodi="http://sodipodi.sourceforge.net/DTD/sodipodi-0.dtd"
   xmlns:inkscape="http://www.inkscape.org/namespaces/inkscape"
   version="1.1"
   width="32"
   height="32"
   viewBox="0 0 32 32"
   id="svg8"
   sodipodi:docname="icon-home.svg"
   inkscape:version="0.92.1 r15371">
  <metadata
     id="metadata14">
    <rdf:RDF>
      <cc:Work
         rdf:about="">
        <dc:format>image/svg+xml</dc:format>
        <dc:type
           rdf:resource="http://purl.org/dc/dcmitype/StillImage" />
      </cc:Work>
    </rdf:RDF>
  </metadata>
  <defs
     id="defs12" />
  <sodipodi:namedview
     pagecolor="#ffffff"
     bordercolor="#666666"
     borderopacity="1"
     objecttolerance="10"
     gridtolerance="10"
     guidetolerance="10"
     inkscape:pageopacity="0"
     inkscape:pageshadow="2"
     inkscape:window-width="1920"
     inkscape:window-height="1017"
     id="namedview10"
     showgrid="false"
     inkscape:zoom="7.375"
     inkscape:cx="16"
     inkscape:cy="16"
     inkscape:window-x="-8"
     inkscape:window-y="-8"
     inkscape:window-maximized="1"
     inkscape:current-layer="svg8" />
  <title
     id="title2">icon-home-default</title>
  <path
     d="M 16.009766 4 C 15.858641 4 15.704359 4.0475781 15.568359 4.1425781 L 2.2949219 13.486328 C 1.9739219 13.723328 1.8994844 14.149031 2.1464844 14.457031 C 2.3934844 14.765031 2.8372031 14.836609 3.1582031 14.599609 L 16.013672 5.5644531 L 28.841797 14.623047 C 28.964797 14.718047 29.113719 14.765625 29.261719 14.765625 C 29.483719 14.765625 29.705516 14.670469 29.853516 14.480469 C 30.100205 14.148887 30.025053 13.723507 29.705078 13.486328 L 16.431641 4.1425781 C 16.308141 4.0475781 16.160891 4 16.009766 4 z M 5.7988281 14.742188 C 5.3798281 14.742188 5.0585938 15.050125 5.0585938 15.453125 L 5.0585938 27.287109 C 5.0585938 27.666109 5.3798281 27.998047 5.7988281 27.998047 L 13.076172 27.998047 C 13.471172 27.998047 13.768969 27.714375 13.792969 27.359375 L 13.792969 27.3125 L 13.792969 20.529297 C 13.792969 19.367297 14.779281 18.417969 15.988281 18.417969 C 17.197281 18.417969 18.183594 19.367297 18.183594 20.529297 L 18.183594 27.3125 L 18.183594 27.359375 C 18.208594 27.715375 18.528437 27.998047 18.898438 27.998047 L 26.177734 27.998047 C 26.572734 27.998047 26.917969 27.690109 26.917969 27.287109 L 26.917969 15.478516 C 26.917969 15.099516 26.596734 14.767578 26.177734 14.767578 C 25.782734 14.767578 25.4375 15.075516 25.4375 15.478516 L 25.4375 26.623047 L 19.638672 26.623047 L 19.638672 20.529297 C 19.638672 18.608297 18.011281 17.019531 15.988281 17.019531 C 13.965281 17.019531 12.337891 18.584297 12.337891 20.529297 L 12.337891 26.599609 L 6.5390625 26.599609 L 6.5390625 15.453125 C 6.5390625 15.074125 6.2178281 14.742188 5.7988281 14.742188 z "
     id="path4" />
</svg>
